<svg width="70" height="91" viewBox="0 0 70 91" fill="none" xmlns="http://www.w3.org/2000/svg">
<path d="M48.5454 10.6365L29.4204 63.0001H22.9431L3.81812 10.6365H10.3976L25.9431 54.9887H26.4204L41.9658 10.6365H48.5454Z" fill="#DE0F3F"/>
<path d="M29.2385 82.6361C28.034 82.6361 26.909 82.5231 25.8635 82.2951C24.8181 82.0681 23.9885 81.8181 23.3749 81.5451L25.0113 76.1931C27.0794 76.8301 28.9204 77.0571 30.534 76.8751C32.1476 76.7161 33.5794 75.9891 34.8294 74.6931C36.0794 73.4201 37.1931 71.4661 38.1704 68.8301L40.0794 63.5115L20.8181 10.6365H27.3976L42.9431 54.9887H43.4204L58.9658 10.6365H65.5454L43.3863 71.2841C42.4544 73.8071 41.3067 75.9091 39.9431 77.5911C38.5794 79.2951 36.9999 80.5571 35.2044 81.3751C33.4317 82.2161 31.4431 82.6361 29.2385 82.6361Z" fill="#DE0F3F"/>
</svg>
