<?xml version="1.0" encoding="UTF-8"?>
<svg version="1.1" xmlns="http://www.w3.org/2000/svg" width="512" height="512">
<path d="M0 0 C1.25661942 0.38372269 2.51323883 0.76744537 3.80793762 1.16279602 C7.25606505 2.21587204 10.69984872 3.28255375 14.14307022 4.35154343 C17.8215864 5.49081663 21.50410859 6.61699101 25.1862793 7.74438477 C31.41174287 9.65202831 37.63501724 11.56666043 43.85693359 13.48583984 C52.98957679 16.30219295 62.12851202 19.0976881 71.26953125 21.88671875 C72.75742713 22.34077066 74.24532182 22.79482645 75.73321533 23.24888611 C77.96546569 23.93008408 80.19772142 24.61126439 82.43000031 25.29236889 C87.64287132 26.8830641 92.85507796 28.47592192 98.06689453 30.07006836 C98.80729477 30.29653329 99.54769501 30.52299822 100.31053162 30.75632572 C101.05200943 30.98312236 101.79348724 31.20991899 102.55743408 31.44358826 C122.16796508 37.44187891 141.78438981 43.4207213 161.4034996 49.39088821 C163.66588203 50.07935889 165.92823544 50.76792483 168.19058228 51.45651245 C171.72791739 52.5331327 175.26532878 53.6095019 178.80280876 54.68564606 C180.70105185 55.26313488 182.59925266 55.84076269 184.49745178 56.418396 C186.75963805 57.1063484 189.02321634 57.78974636 191.28840637 58.46774292 C193.16555652 59.04545435 195.03423606 59.65259612 196.88676453 60.30496216 C203.95886922 62.7260382 210.66613996 62.82290327 218.09765625 62.8046875 C220.0785954 62.8212472 222.05953456 62.83782348 224.04046535 62.85535431 C228.18146712 62.88730991 232.32258347 62.89321964 236.46368408 62.90374756 C239.88757016 62.91347251 243.31119933 62.92903464 246.73497009 62.95935059 C249.29036365 62.98072823 251.84590712 62.98928581 254.40138245 62.98303223 C264.53778609 63.07075888 272.09152214 64.42359984 279.5859375 71.5 C284.27474771 76.6555696 286.03398613 81.77775718 286.5625 88.6484375 C286.05098434 96.32117247 283.67481663 102.10857538 278.29296875 107.66796875 C271.96696708 113.19542188 266.11090594 113.61744124 257.98828125 113.4921875 C257.15317017 113.48541992 256.31805908 113.47865234 255.4576416 113.47167969 C253.40919099 113.45410271 251.36082405 113.42720273 249.3125 113.3984375 C249.32138245 114.1537677 249.33026489 114.9090979 249.3394165 115.68731689 C249.41959389 122.80864837 249.48047985 129.92976075 249.51974869 137.05142593 C249.5406161 140.71270261 249.56891706 144.37360608 249.61425781 148.03466797 C249.65774763 151.56842461 249.68164348 155.10182249 249.69200897 158.63582611 C249.70298737 160.63895002 249.73420876 162.64192976 249.76568604 164.64483643 C249.76598816 165.86580017 249.76629028 167.08676392 249.76660156 168.34472656 C249.77548401 169.41950256 249.78436646 170.49427856 249.79351807 171.60162354 C249.19266694 175.09519047 248.0682837 176.23866429 245.3125 178.3984375 C242.55078125 179.33984375 242.55078125 179.33984375 239.625 179.9609375 C236.74416266 180.51396488 236.74416266 180.51396488 234.3125 181.3984375 C233.09989123 185.03626382 232.91705448 187.57579749 233.3125 191.3984375 C235.22916667 194.48177083 235.22916667 194.48177083 238.3125 196.3984375 C242.16000804 197.00593877 244.25189152 197.07604848 247.5625 194.9609375 C249.63178776 191.93090899 250.54763591 189.04169468 251.50390625 185.51953125 C252.41945221 183.1178817 253.27838435 181.95825214 255.3125 180.3984375 C258.8629853 180.01111183 261.37901697 180.00539201 264.6875 181.3984375 C267.18907605 184.47730033 267.47282361 187.56403127 267.3125 191.3984375 C265.95416021 198.89542826 262.28782296 205.43134863 256.15625 210.0078125 C248.75144198 214.28721454 241.03126754 214.73164711 232.765625 212.8046875 C226.4857063 210.46595916 222.02029561 205.89344395 218.3125 200.3984375 C215.54620779 193.73050188 214.91450466 185.90949463 217.0703125 178.953125 C218.02524983 176.97557762 219.06865512 175.20610134 220.3125 173.3984375 C220.910625 172.4909375 221.50875 171.5834375 222.125 170.6484375 C224.95456408 167.73802873 227.67970735 166.21483383 231.3125 164.3984375 C231.9725 164.3984375 232.6325 164.3984375 233.3125 164.3984375 C233.3125 147.5684375 233.3125 130.7384375 233.3125 113.3984375 C222.87882813 113.46804687 222.87882813 113.46804687 212.234375 113.5390625 C207.83201636 113.55949674 203.42971605 113.57875222 199.02734375 113.59375 C192.03714886 113.61767651 185.04716322 113.64600427 178.05712891 113.70019531 C172.42261713 113.74360495 166.7883297 113.76756458 161.15366364 113.77794647 C159.00221473 113.78534657 156.85077833 113.79979697 154.69942474 113.82135773 C151.68964447 113.85032636 148.68079532 113.85439618 145.67089844 113.85253906 C144.7782579 113.86692017 143.88561737 113.88130127 142.96592712 113.89611816 C136.95906106 113.85591999 136.95906106 113.85591999 133.75494385 111.58880615 C131.6492286 108.39125175 131.84456965 106.14188028 132.3125 102.3984375 C134.07265131 99.2134018 134.81140916 98.56546778 138.3125 97.3984375 C140.01626824 97.30504143 141.72346972 97.26946444 143.42979431 97.26713562 C144.48832108 97.26312744 145.54684784 97.25911926 146.63745117 97.25498962 C148.37913574 97.2557827 148.37913574 97.2557827 150.15600586 97.2565918 C151.37896866 97.25311737 152.60193146 97.24964294 153.86195374 97.24606323 C156.52202331 97.23870232 159.18204286 97.23303106 161.8421154 97.22977257 C166.04831417 97.22386057 170.25442843 97.20731907 174.46058655 97.18843079 C175.90070624 97.18209359 177.34082598 97.17576797 178.78094578 97.16945362 C179.50210642 97.16628781 180.22326706 97.163122 180.96628106 97.15986025 C190.75834893 97.11778114 200.550377 97.08479866 210.3425293 97.07250977 C216.94845928 97.06413434 223.55417959 97.04166491 230.16000468 97.0031541 C233.65561755 96.98337887 237.15091688 96.97099363 240.64658928 96.97598839 C244.54446571 96.98149022 248.44181109 96.95625537 252.33959961 96.9284668 C254.07824783 96.93836891 254.07824783 96.93836891 255.85202026 96.94847107 C256.91336685 96.93600342 257.97471344 96.92353577 259.06822205 96.91069031 C259.98980575 96.90830195 260.91138945 96.9059136 261.86089993 96.90345287 C265.07613455 96.24113322 266.26415963 94.90773213 268.3125 92.3984375 C269.56581017 89.13983106 269.54529906 87.92529852 268.125 84.7109375 C265.88437306 81.85220658 263.9449887 80.60671459 260.31529117 80.14362848 C259.60597359 80.14135016 258.89665601 80.13907183 258.16584396 80.13672447 C256.93122583 80.12552623 256.93122583 80.12552623 255.67166591 80.11410177 C254.3234201 80.11700387 254.3234201 80.11700387 252.94793701 80.1199646 C251.98896806 80.1141722 251.02999911 80.1083798 250.04197049 80.10241187 C246.82058973 80.08537269 243.59935191 80.08253197 240.37792969 80.07958984 C238.07194669 80.07029438 235.76596706 80.06012629 233.45999146 80.04914856 C227.19184036 80.0217915 220.9237118 80.00668222 214.65551662 79.99372053 C208.1078221 79.97811495 201.56017379 79.95131656 195.01251221 79.9256897 C184.02007567 79.88385062 173.027633 79.8495995 162.03515625 79.8203125 C150.71287217 79.79012786 139.39061337 79.75577799 128.06835938 79.71582031 C127.02150027 79.71212799 127.02150027 79.71212799 125.95349249 79.70836107 C122.45230211 79.69598649 118.95111203 79.68352995 115.44992208 79.67103267 C86.40415112 79.56746158 57.35834534 79.47840681 28.3125 79.3984375 C28.63395996 80.65720703 28.95541992 81.91597656 29.28662109 83.21289062 C30.11209852 86.44528646 30.65985647 89.56671509 30.9375 92.8984375 C31.04964844 94.18234375 31.04964844 94.18234375 31.1640625 95.4921875 C31.21304688 96.12125 31.26203125 96.7503125 31.3125 97.3984375 C32.25575134 97.39399628 33.19900269 97.38955505 34.1708374 97.38497925 C43.05812732 97.34444381 51.94539849 97.31445821 60.83275986 97.29481316 C65.40189211 97.28437394 69.97094975 97.2702122 74.54003906 97.24755859 C78.94908634 97.22583517 83.35806184 97.21386991 87.76715851 97.20868301 C89.44968038 97.20498636 91.1321983 97.19776778 92.81468964 97.18697739 C95.17049158 97.17246908 97.52599653 97.17045927 99.88183594 97.17138672 C100.57811096 97.16419617 101.27438599 97.15700562 101.99176025 97.14959717 C105.59569404 97.16495964 108.284678 97.35580295 111.3125 99.3984375 C113.3940902 102.07476776 113.30837591 103.51597418 113.1875 106.9609375 C112.3125 110.3984375 112.3125 110.3984375 110.71075439 112.09199524 C107.39094628 113.90045127 104.83806172 113.75826179 101.06542969 113.73901367 C100.34308136 113.73945175 99.62073303 113.73988983 98.87649536 113.74034119 C96.49551096 113.73825579 94.11523597 113.71493736 91.734375 113.69140625 C90.08099757 113.68580939 88.42761515 113.68153972 86.77423096 113.67854309 C82.42743132 113.66710136 78.08093351 113.63764009 73.73425293 113.60443115 C69.29683515 113.57371571 64.8593685 113.56003461 60.421875 113.54492188 C51.71861166 113.51276963 43.0155934 113.46158156 34.3125 113.3984375 C34.6425 114.3884375 34.9725 115.3784375 35.3125 116.3984375 C35.81404202 122.5172501 35.39038705 125.50497304 31.3125 130.3984375 C28.3125 132.3984375 28.3125 132.3984375 16.3125 132.3984375 C16.3125 239.6484375 16.3125 346.8984375 16.3125 457.3984375 C21.5925 457.3984375 26.8725 457.3984375 32.3125 457.3984375 C36.97090611 462.05684361 38.01243975 463.27863519 39.734375 469.125 C39.92469299 469.75449554 40.11501099 470.38399109 40.31109619 471.03256226 C40.90997554 473.02539557 41.48657288 475.02386489 42.0625 477.0234375 C42.4633659 478.37283574 42.86569679 479.72179969 43.26953125 481.0703125 C44.00625743 483.53613603 44.73251917 486.00414314 45.45214844 488.47509766 C46.03644328 490.46044002 46.65805483 492.435102 47.3125 494.3984375 C47.98699858 501.25583974 47.98699858 501.25583974 45.48730469 505.49031067 C42.96896657 508.39764253 41.06071299 508.87961002 37.26513672 509.15361023 C35.17440697 509.18620562 33.08300194 509.18554996 30.9921875 509.15893555 C29.8485675 509.16784317 28.70494751 509.17675079 27.52667236 509.18592834 C23.74636797 509.20723859 19.96776295 509.18488663 16.1875 509.16015625 C13.56103338 509.16165829 10.93456722 509.16508738 8.30810547 509.17036438 C2.8035138 509.17670012 -2.70058904 509.15846111 -8.20507812 509.12573242 C-14.56341603 509.08823882 -20.92082801 509.09001745 -27.27921486 509.1127736 C-33.40305198 509.13374352 -39.52649289 509.1263429 -45.65032959 509.10645485 C-48.25306587 509.10060121 -50.85582837 509.10191299 -53.45855713 509.11047935 C-57.09536205 509.11846252 -60.73055405 509.09424848 -64.3671875 509.0612793 C-65.44474304 509.06982941 -66.52229858 509.07837952 -67.63250732 509.08718872 C-74.9119217 508.97318243 -74.9119217 508.97318243 -78.83634949 506.06497192 C-81.19443902 502.66820495 -81.61856885 500.52963779 -81.6875 496.3984375 C-81.13063592 493.68836567 -80.51230389 491.248416 -79.66796875 488.63671875 C-79.34002068 487.56710152 -79.34002068 487.56710152 -79.00544739 486.47587585 C-78.30863074 484.21650252 -77.59177778 481.96404677 -76.875 479.7109375 C-76.4043602 478.18723103 -75.93494732 476.66314502 -75.46679688 475.13867188 C-75.01413016 473.67934294 -74.56039075 472.22034621 -74.10546875 470.76171875 C-73.89391647 470.08248856 -73.6823642 469.40325836 -73.46440125 468.70344543 C-70.71744189 460.08506542 -70.71744189 460.08506542 -66.6875 457.3984375 C-61.4075 457.3984375 -56.1275 457.3984375 -50.6875 457.3984375 C-50.6875 350.1484375 -50.6875 242.8984375 -50.6875 132.3984375 C-54.3175 132.3984375 -57.9475 132.3984375 -61.6875 132.3984375 C-65.38227992 130.28713469 -67.08148378 128.27259943 -68.6875 124.3984375 C-68.91796875 122.109375 -68.91796875 122.109375 -68.875 119.7734375 C-68.86855469 118.99742188 -68.86210938 118.22140625 -68.85546875 117.421875 C-68.6875 115.3984375 -68.6875 115.3984375 -67.6875 113.3984375 C-78.2475 113.3984375 -88.8075 113.3984375 -99.6875 113.3984375 C-99.6875 121.9784375 -99.6875 130.5584375 -99.6875 139.3984375 C-94.69162363 139.2805966 -94.69162363 139.2805966 -89.69677734 139.12817383 C-84.97689265 139.07245546 -81.71063027 139.67899021 -77.6875 142.3984375 C-74.4706965 146.54191387 -74.24656323 150.29969539 -74.2890625 155.3671875 C-74.28619232 156.12511597 -74.28332214 156.88304443 -74.28036499 157.66394043 C-74.27833034 159.2608312 -74.28381823 160.85774724 -74.29638672 162.45458984 C-74.3124501 164.89086947 -74.29651891 167.32549037 -74.27734375 169.76171875 C-74.27932629 171.31771197 -74.28317019 172.87370417 -74.2890625 174.4296875 C-74.28298981 175.15377808 -74.27691711 175.87786865 -74.2706604 176.62390137 C-74.33191969 181.05622969 -74.79873642 183.97980042 -77.6875 187.3984375 C-82.99749316 191.19953186 -88.50656155 190.8500545 -94.78125 190.83203125 C-96.37857971 190.83989403 -96.37857971 190.83989403 -98.00817871 190.84791565 C-100.25397878 190.85432358 -102.49981247 190.85301483 -104.74560547 190.84448242 C-108.17606446 190.83596589 -111.60486129 190.86476337 -115.03515625 190.89648438 C-117.22135367 190.89809641 -119.40755403 190.89751882 -121.59375 190.89453125 C-122.61577515 190.90576523 -123.63780029 190.91699921 -124.6907959 190.92857361 C-130.47543116 190.87211759 -134.2774766 190.54297887 -138.6875 186.3984375 C-141.5988356 181.98802147 -142.07154613 178.46968229 -142.0859375 173.2421875 C-142.08880768 172.57682983 -142.09167786 171.91147217 -142.09463501 171.22595215 C-142.09666483 169.82754661 -142.09121103 168.42911198 -142.07861328 167.03076172 C-142.0625418 164.90396969 -142.07849649 162.77907747 -142.09765625 160.65234375 C-142.09567362 159.28645419 -142.09182954 157.92056579 -142.0859375 156.5546875 C-142.08255371 155.32556641 -142.07916992 154.09644531 -142.07568359 152.83007812 C-141.49537262 147.69998314 -139.88857443 144.47477126 -136.0546875 141.0390625 C-131.75822308 138.94565756 -128.50213686 138.94339631 -123.8125 139.1484375 C-121.13125 139.2309375 -118.45 139.3134375 -115.6875 139.3984375 C-115.6875 130.8184375 -115.6875 122.2384375 -115.6875 113.3984375 C-121.71595259 113.55600201 -121.71595259 113.55600201 -127.74291992 113.75878906 C-131.75835423 113.81164055 -134.12491063 113.71907667 -137.67578125 111.6953125 C-142.97970396 105.63957162 -142.02592228 98.26430003 -142.00317383 90.67895508 C-142.00001442 88.47101435 -142.02349663 86.26441596 -142.04882812 84.05664062 C-142.0511016 82.64062668 -142.05180439 81.22460916 -142.05078125 79.80859375 C-142.05376221 78.53121338 -142.05674316 77.25383301 -142.05981445 75.93774414 C-141.64426874 71.98747118 -140.92029471 69.68244384 -138.6875 66.3984375 C-134.42639298 63.53805331 -131.34809954 63.19154258 -126.30859375 63.3515625 C-116.58828441 62.8167099 -110.3637892 57.69063768 -102.75 52.1484375 C-101.25940293 51.097272 -99.76660018 50.04922802 -98.27172852 49.00415039 C-95.21260662 46.8613477 -92.16370715 44.70514214 -89.12207031 42.53759766 C-82.53422402 37.85581868 -75.82893311 33.3490251 -69.125 28.8359375 C-66.60082943 27.13389707 -64.07760515 25.43045943 -61.5546875 23.7265625 C-60.92487976 23.30169052 -60.29507202 22.87681854 -59.6461792 22.43907166 C-55.40767986 19.57531554 -51.19115582 16.68118323 -46.983078 13.77293396 C-43.97612415 11.69936701 -40.9589858 9.64094821 -37.93997192 7.58499146 C-36.49503738 6.59592177 -35.05454128 5.60033238 -33.61886597 4.59786987 C-31.62308234 3.20543877 -29.61271242 1.83698963 -27.59765625 0.47265625 C-26.72459335 -0.14908478 -26.72459335 -0.14908478 -25.83389282 -0.78338623 C-17.29523217 -6.46581717 -8.96306862 -2.80722498 0 0 Z M-8.6875 15.3984375 C-8.6875 24.9684375 -8.6875 34.5384375 -8.6875 44.3984375 C-1.01465267 44.60805261 -1.01465267 44.60805261 6.65893555 44.78637695 C7.620979 44.81948975 8.58302246 44.85260254 9.57421875 44.88671875 C11.04314575 44.92599487 11.04314575 44.92599487 12.54174805 44.96606445 C16.66081311 45.6088404 19.3715526 47.24839068 22 50.4609375 C23.3125 53.3984375 23.3125 53.3984375 25.3125 63.3984375 C66.2325 63.3984375 107.1525 63.3984375 149.3125 63.3984375 C145.52283145 61.50360322 141.81038406 60.21812652 137.7800293 58.99438477 C136.64169631 58.64417534 136.64169631 58.64417534 135.48036671 58.28689098 C132.95018364 57.50946311 130.41847496 56.73713179 127.88671875 55.96484375 C126.08947363 55.41387269 124.29231561 54.86261745 122.49523926 54.31109619 C117.66498077 52.82980846 112.83331842 51.35315233 108.00127792 49.87768936 C105.00762188 48.96326563 102.01432213 48.04768541 99.02114868 47.13168335 C86.05123979 43.16253167 73.07861165 39.20235604 60.10388184 35.24899292 C57.41587671 34.42993717 54.72795107 33.61062104 52.04003906 32.79125977 C42.20547347 29.7939023 32.36839689 26.8049616 22.52835464 23.825634 C20.49997044 23.21092854 18.47202246 22.59480307 16.44418335 21.978302 C12.7286185 20.84901722 9.01096541 19.72672306 5.29296875 18.60546875 C4.20971313 18.27556946 3.12645752 17.94567017 2.01037598 17.60577393 C0.53993835 17.16440094 0.53993835 17.16440094 -0.96020508 16.71411133 C-1.80730545 16.4580159 -2.65440582 16.20192047 -3.5271759 15.93806458 C-5.80147838 15.27726563 -5.80147838 15.27726563 -8.6875 15.3984375 Z M-29.83984375 22.08984375 C-30.74557129 22.6940918 -31.65129883 23.29833984 -32.58447266 23.92089844 C-34.08953369 24.93071777 -34.08953369 24.93071777 -35.625 25.9609375 C-36.66446777 26.65606445 -37.70393555 27.35119141 -38.77490234 28.06738281 C-49.97287063 35.56262727 -61.12915493 43.12011868 -72.28491211 50.67797852 C-73.35217278 51.40099907 -73.35217278 51.40099907 -74.44099426 52.1386261 C-75.7731785 53.04128859 -77.10521121 53.94417476 -78.4370575 54.84733582 C-79.34244011 55.46092705 -79.34244011 55.46092705 -80.26611328 56.08691406 C-81.12248383 56.66850281 -81.12248383 56.66850281 -81.99615479 57.26184082 C-83.14668895 58.03500842 -84.30369827 58.79860798 -85.46624756 59.55358887 C-86.88869554 60.47866614 -88.29049257 61.43537133 -89.6875 62.3984375 C-89.6875 62.7284375 -89.6875 63.0584375 -89.6875 63.3984375 C-79.4575 63.3984375 -69.2275 63.3984375 -58.6875 63.3984375 C-57.6975 59.1084375 -56.7075 54.8184375 -55.6875 50.3984375 C-54.6875 47.3984375 -54.6875 47.3984375 -52.3984375 46.25 C-47.05399711 45.02359157 -41.77921399 44.92853722 -36.3125 44.7734375 C-30.558125 44.5878125 -30.558125 44.5878125 -24.6875 44.3984375 C-24.6875 36.1484375 -24.6875 27.8984375 -24.6875 19.3984375 C-26.61764655 19.3984375 -28.29849856 21.05958701 -29.83984375 22.08984375 Z M-42.6875 60.3984375 C-44.1725 68.6896875 -45.6575 76.9809375 -47.1875 85.5234375 C-47.65736328 88.13137207 -48.12722656 90.73930664 -48.61132812 93.42626953 C-48.98087823 95.50285686 -49.35004473 97.5795125 -49.71875 99.65625 C-49.91307617 100.72673584 -50.10740234 101.79722168 -50.30761719 102.90014648 C-50.4903418 103.93486084 -50.67306641 104.9695752 -50.86132812 106.03564453 C-51.02121216 106.92833038 -51.18109619 107.82101624 -51.3458252 108.74075317 C-51.81501166 111.94368168 -51.81501166 111.94368168 -51.6875 117.3984375 C-28.5875 117.3984375 -5.4875 117.3984375 18.3125 117.3984375 C17.61775087 109.09481057 17.61775087 109.09481057 16.46459961 100.92700195 C16.30229858 99.99440552 16.13999756 99.06180908 15.97277832 98.10095215 C15.80515991 97.16400513 15.6375415 96.22705811 15.46484375 95.26171875 C15.30858521 94.36851929 15.15232666 93.47531982 14.99133301 92.55505371 C14.41579357 89.27281779 13.83246192 85.99195204 13.25 82.7109375 C11.3009375 71.66625 11.3009375 71.66625 9.3125 60.3984375 C-7.8475 60.3984375 -25.0075 60.3984375 -42.6875 60.3984375 Z M-125.6875 79.3984375 C-125.6875 85.3384375 -125.6875 91.2784375 -125.6875 97.3984375 C-105.5575 97.3984375 -85.4275 97.3984375 -64.6875 97.3984375 C-63.2025 88.4884375 -63.2025 88.4884375 -61.6875 79.3984375 C-82.8075 79.3984375 -103.9275 79.3984375 -125.6875 79.3984375 Z M-24.6875 132.3984375 C-22.99177347 135.78989057 -22.10495372 137.1925086 -19.5 139.6484375 C-15.65988842 143.37747147 -12.18174905 147.34777936 -8.6875 151.3984375 C-7.23322298 153.06864474 -5.77488908 154.73532835 -4.3125 156.3984375 C-3.31089844 157.543125 -3.31089844 157.543125 -2.2890625 158.7109375 C-1.76054687 159.2678125 -1.23203125 159.8246875 -0.6875 160.3984375 C-0.3575 160.3984375 -0.0275 160.3984375 0.3125 160.3984375 C0.3125 151.1584375 0.3125 141.9184375 0.3125 132.3984375 C-7.9375 132.3984375 -16.1875 132.3984375 -24.6875 132.3984375 Z M-34.6875 147.3984375 C-34.6875 156.3084375 -34.6875 165.2184375 -34.6875 174.3984375 C-26.4375 174.3984375 -18.1875 174.3984375 -9.6875 174.3984375 C-13.4525626 170.00586446 -17.20351142 165.70115374 -21.125 161.4609375 C-24.98180538 157.2843765 -28.76382707 153.05979416 -32.4453125 148.7265625 C-32.85523438 148.28828125 -33.26515625 147.85 -33.6875 147.3984375 C-34.0175 147.3984375 -34.3475 147.3984375 -34.6875 147.3984375 Z M-125.6875 155.3984375 C-125.6875 161.6684375 -125.6875 167.9384375 -125.6875 174.3984375 C-114.1375 174.3984375 -102.5875 174.3984375 -90.6875 174.3984375 C-90.6875 168.1284375 -90.6875 161.8584375 -90.6875 155.3984375 C-102.2375 155.3984375 -113.7875 155.3984375 -125.6875 155.3984375 Z M-23.6875 190.3984375 C-18.88458657 196.87331642 -18.88458657 196.87331642 -13.671875 202.828125 C-12.63160156 203.92640625 -12.63160156 203.92640625 -11.5703125 205.046875 C-10.51457031 206.14902344 -10.51457031 206.14902344 -9.4375 207.2734375 C-8.71820313 208.03140625 -7.99890625 208.789375 -7.2578125 209.5703125 C-4.75642314 212.20286085 -2.25536415 214.83057335 0.3125 217.3984375 C0.3125 208.4884375 0.3125 199.5784375 0.3125 190.3984375 C-7.6075 190.3984375 -15.5275 190.3984375 -23.6875 190.3984375 Z M-34.6875 203.3984375 C-34.6875 212.3084375 -34.6875 221.2184375 -34.6875 230.3984375 C-26.7675 230.3984375 -18.8475 230.3984375 -10.6875 230.3984375 C-15.37205953 224.06097419 -15.37205953 224.06097419 -20.44921875 218.22265625 C-21.41504883 217.19881836 -21.41504883 217.19881836 -22.40039062 216.15429688 C-23.05201172 215.47173828 -23.70363281 214.78917969 -24.375 214.0859375 C-25.36983398 213.0330957 -25.36983398 213.0330957 -26.38476562 211.95898438 C-29.12008707 209.06940512 -31.87367623 206.21226127 -34.6875 203.3984375 Z M-24.6875 246.3984375 C-20.9224374 250.79101054 -17.17148858 255.09572126 -13.25 259.3359375 C-9.39319462 263.5124985 -5.61117293 267.73708084 -1.9296875 272.0703125 C-1.51976562 272.50859375 -1.10984375 272.946875 -0.6875 273.3984375 C-0.3575 273.3984375 -0.0275 273.3984375 0.3125 273.3984375 C0.3125 264.4884375 0.3125 255.5784375 0.3125 246.3984375 C-7.9375 246.3984375 -16.1875 246.3984375 -24.6875 246.3984375 Z M-34.6875 260.3984375 C-34.6875 269.3084375 -34.6875 278.2184375 -34.6875 287.3984375 C-26.4375 287.3984375 -18.1875 287.3984375 -9.6875 287.3984375 C-13.4525626 283.00586446 -17.20351142 278.70115374 -21.125 274.4609375 C-24.98180538 270.2843765 -28.76382707 266.05979416 -32.4453125 261.7265625 C-32.85523438 261.28828125 -33.26515625 260.85 -33.6875 260.3984375 C-34.0175 260.3984375 -34.3475 260.3984375 -34.6875 260.3984375 Z M-23.6875 303.3984375 C-18.88458657 309.87331642 -18.88458657 309.87331642 -13.671875 315.828125 C-12.63160156 316.92640625 -12.63160156 316.92640625 -11.5703125 318.046875 C-10.51457031 319.14902344 -10.51457031 319.14902344 -9.4375 320.2734375 C-8.71820313 321.03140625 -7.99890625 321.789375 -7.2578125 322.5703125 C-4.75642314 325.20286085 -2.25536415 327.83057335 0.3125 330.3984375 C0.3125 321.4884375 0.3125 312.5784375 0.3125 303.3984375 C-7.6075 303.3984375 -15.5275 303.3984375 -23.6875 303.3984375 Z M-34.6875 316.3984375 C-34.6875 325.6384375 -34.6875 334.8784375 -34.6875 344.3984375 C-26.4375 344.3984375 -18.1875 344.3984375 -9.6875 344.3984375 C-13.44984031 339.38198375 -16.5202072 335.41697888 -20.89453125 331.1875 C-23.37825971 328.70918271 -25.64168703 326.06205178 -27.9140625 323.390625 C-30.07169153 320.96685671 -32.3929395 318.692998 -34.6875 316.3984375 Z M-24.6875 359.3984375 C-20.9224374 363.79101054 -17.17148858 368.09572126 -13.25 372.3359375 C-9.39319462 376.5124985 -5.61117293 380.73708084 -1.9296875 385.0703125 C-1.51976562 385.50859375 -1.10984375 385.946875 -0.6875 386.3984375 C-0.3575 386.3984375 -0.0275 386.3984375 0.3125 386.3984375 C0.3125 377.4884375 0.3125 368.5784375 0.3125 359.3984375 C-7.9375 359.3984375 -16.1875 359.3984375 -24.6875 359.3984375 Z M-34.6875 373.3984375 C-34.6875 382.3084375 -34.6875 391.2184375 -34.6875 400.3984375 C-26.4375 400.3984375 -18.1875 400.3984375 -9.6875 400.3984375 C-13.4525626 396.00586446 -17.20351142 391.70115374 -21.125 387.4609375 C-24.98180538 383.2843765 -28.76382707 379.05979416 -32.4453125 374.7265625 C-32.85523438 374.28828125 -33.26515625 373.85 -33.6875 373.3984375 C-34.0175 373.3984375 -34.3475 373.3984375 -34.6875 373.3984375 Z M-23.6875 416.3984375 C-19.00294047 422.73590081 -19.00294047 422.73590081 -13.92578125 428.57421875 C-12.95995117 429.59805664 -12.95995117 429.59805664 -11.97460938 430.64257812 C-10.99717773 431.66641602 -10.99717773 431.66641602 -10 432.7109375 C-9.33677734 433.41283203 -8.67355469 434.11472656 -7.99023438 434.83789062 C-5.25491293 437.72746988 -2.50132377 440.58461373 0.3125 443.3984375 C0.3125 434.4884375 0.3125 425.5784375 0.3125 416.3984375 C-7.6075 416.3984375 -15.5275 416.3984375 -23.6875 416.3984375 Z M-34.6875 429.3984375 C-34.6875 438.6384375 -34.6875 447.8784375 -34.6875 457.3984375 C-26.4375 457.3984375 -18.1875 457.3984375 -9.6875 457.3984375 C-13.44984031 452.38198375 -16.5202072 448.41697888 -20.89453125 444.1875 C-23.37825971 441.70918271 -25.64168703 439.06205178 -27.9140625 436.390625 C-30.07169153 433.96685671 -32.3929395 431.692998 -34.6875 429.3984375 Z M-57.6875 472.3984375 C-60.6575 482.7934375 -60.6575 482.7934375 -63.6875 493.3984375 C-32.9975 493.3984375 -2.3075 493.3984375 29.3125 493.3984375 C27.3410831 483.79819245 27.3410831 483.79819245 23.3125 472.3984375 C-3.4175 472.3984375 -30.1475 472.3984375 -57.6875 472.3984375 Z " fill="#000000" transform="translate(174.6875,3.6015625)"/>
<path d="M0 0 C2 3 2 3 2 13 C24.11 13 46.22 13 69 13 C69 10.03 69 7.06 69 4 C71 0 71 0 74.25 -1.4375 C78.6613383 -2.09920075 80.33817108 -1.44121928 84 1 C85.44957456 3.89914911 85.11932924 6.414283 85.11352539 9.65283203 C85.11367142 10.33587402 85.11381744 11.01891602 85.1139679 11.72265625 C85.11327023 13.9844071 85.10548465 16.246076 85.09765625 18.5078125 C85.09579155 20.07437088 85.09436789 21.64092984 85.09336853 23.20748901 C85.08954743 27.33389898 85.0797206 31.46027384 85.06866455 35.58666992 C85.05664483 40.53593724 85.05204625 45.48521629 85.04621124 50.43449402 C85.03650864 57.95635377 85.01734925 65.47813647 85 73 C107.11 73 129.22 73 152 73 C152 67.39 152 61.78 152 56 C154 52 154 52 157.25 50.5625 C161.6613383 49.90079925 163.33817108 50.55878072 167 53 C168.49270207 55.98540413 168.12692505 59.03527582 168.11010742 62.30786133 C168.11065018 63.86879986 168.11123719 65.42973838 168.11186218 66.99067688 C168.11043402 67.82004572 168.10900585 68.64941456 168.10753441 69.50391579 C168.10402116 73.88874099 168.12980903 78.27343683 168.15039062 82.65820312 C168.17473229 88.24140133 168.19042731 93.82422686 168.17504883 99.4074707 C168.16339112 103.91643557 168.18077385 108.42447411 168.21749306 112.9332943 C168.22611236 114.65124203 168.2240221 116.36927834 168.210989 118.08719826 C168.19409768 120.49381383 168.21428413 122.89751029 168.24291992 125.30395508 C168.22912796 126.01219421 168.215336 126.72043335 168.2011261 127.45013428 C168.2655776 130.24677915 168.44863393 132.38137402 170.35100746 134.51581383 C171.84828481 135.74400716 173.42175025 136.87775847 175 138 C176.42337486 140.84674971 176.12269995 143.24467045 176.12025452 146.42861938 C176.12153615 147.42961121 176.12153615 147.42961121 176.12284368 148.4508251 C176.12449684 150.69722411 176.11897979 152.94354921 176.11352539 155.18994141 C176.11324346 156.7961273 176.11340137 158.40231333 176.1139679 160.00849915 C176.11425563 164.37808728 176.10836274 168.74764815 176.10139394 173.11722994 C176.09515644 177.68031458 176.09455629 182.24339979 176.09336853 186.80648804 C176.09025639 195.4514651 176.08204456 204.09642957 176.07201904 212.74140108 C176.06085429 222.58164546 176.05534654 232.42189043 176.05032361 242.26213956 C176.03986186 262.50810008 176.02226467 282.75404925 176 303 C176.96421875 302.94199219 177.9284375 302.88398438 178.921875 302.82421875 C180.18515625 302.77910156 181.4484375 302.73398437 182.75 302.6875 C184.00296875 302.62949219 185.2559375 302.57148438 186.546875 302.51171875 C190 303 190 303 192.45703125 305.29296875 C194 308 194 308 193.9375 311.625 C193.00533303 314.98080109 192.63891997 315.9419852 190 318 C186.97350453 318.29727866 184.15230902 318.40874331 181.12428284 318.38768005 C180.20574254 318.39306559 179.28720225 318.39845113 178.34082741 318.40399987 C175.24995149 318.41835561 172.15949926 318.41115696 169.06860352 318.40405273 C166.85792698 318.40975232 164.64725339 318.41671497 162.43658447 318.42485046 C156.42218035 318.44284249 150.40792164 318.44160213 144.39349866 318.43590808 C139.37832199 318.43282494 134.3631736 318.43889891 129.34800094 318.44494683 C116.84274281 318.45981514 104.33755514 318.45616182 91.83230203 318.44408352 C80.96813178 318.43415077 70.10413183 318.44709079 59.23998786 318.47101771 C48.08890075 318.49539184 36.93787542 318.50462066 25.78675789 318.49836498 C19.52455419 318.49498743 13.26249121 318.49746342 7.00030708 318.51461601 C1.11271677 318.53003767 -4.77454743 318.52618268 -10.66212463 318.50731087 C-12.82611082 318.50361173 -14.99012092 318.50677175 -17.15408516 318.51719666 C-20.10220376 318.53031758 -23.04922852 318.51893807 -25.99729919 318.50120544 C-26.85906484 318.51081045 -27.72083048 318.52041546 -28.60871023 318.53031152 C-32.41590408 318.48300688 -34.37509174 318.44676453 -37.53532505 316.18742466 C-39.67259694 312.99550742 -39.46927262 310.75418099 -39 307 C-37.921875 304.796875 -37.921875 304.796875 -36 303 C-32.64453125 302.609375 -32.64453125 302.609375 -28.8125 302.75 C-27.54019531 302.78609375 -26.26789063 302.8221875 -24.95703125 302.859375 C-23.98121094 302.90578125 -23.00539063 302.9521875 -22 303 C-22.00888245 301.93368851 -22.01776489 300.86737701 -22.0269165 299.76875305 C-22.10800708 289.71924357 -22.16796771 279.66980047 -22.20724869 269.62003803 C-22.22812241 264.45334041 -22.25643634 259.28690693 -22.30175781 254.12036133 C-22.34522292 249.13422741 -22.36913873 244.14834755 -22.37950897 239.1620388 C-22.38689913 237.2598184 -22.4013304 235.35761188 -22.42292023 233.45549965 C-22.45196313 230.79074699 -22.45595565 228.1270437 -22.45410156 225.4621582 C-22.46848267 224.67597107 -22.48286377 223.88978394 -22.49768066 223.07977295 C-22.46945927 219.33059131 -22.13021402 217.20452286 -20.09661865 214.01042175 C-18 212 -18 212 -16 211.37109375 C-15.01 211.40396484 -15.01 211.40396484 -14 211.4375 C-13.34 211.43621094 -12.68 211.43492187 -12 211.43359375 C-8.98853409 212.28645031 -7.90361718 213.50756476 -6 216 C-5.62602806 218.94180823 -5.49303327 221.50280331 -5.54589844 224.44042969 C-5.54531433 225.28957443 -5.54473022 226.13871918 -5.54412842 227.01359558 C-5.54691235 229.81677306 -5.57801855 232.61888358 -5.609375 235.421875 C-5.6168363 237.36671365 -5.62252976 239.31155983 -5.62652588 241.25640869 C-5.64179093 246.3726684 -5.68108039 251.48847314 -5.7253418 256.60455322 C-5.77347383 262.74436542 -5.79182435 268.88432983 -5.81515503 275.02427673 C-5.85393074 284.34983415 -5.93057861 293.67439351 -6 303 C10.83 303 27.66 303 45 303 C44.94199219 298.87113281 44.88398438 294.74226563 44.82421875 290.48828125 C44.79204906 287.1897838 44.76494061 283.89133085 44.74124908 280.59276581 C44.71487755 277.11401232 44.67965775 273.63587089 44.62280273 270.1574707 C44.55793166 266.16351501 44.53379138 262.17020442 44.51171875 258.17578125 C44.48591232 256.93290848 44.4601059 255.69003571 44.43351746 254.40950012 C44.43192946 249.52837383 44.43081687 246.05378444 46.77270508 241.71801758 C51.78929294 239.04748813 56.52378971 239.28619538 62.125 239.3359375 C63.89447998 239.32876205 63.89447998 239.32876205 65.69970703 239.32144165 C68.19109431 239.31804273 70.68252619 239.32724435 73.17382812 239.34814453 C76.98668899 239.37490657 80.79660568 239.34839257 84.609375 239.31640625 C87.0312565 239.31971034 89.45313616 239.32611656 91.875 239.3359375 C93.01469238 239.32581635 94.15438477 239.31569519 95.32861328 239.30526733 C103.19361374 239.42170374 103.19361374 239.42170374 107.1953125 242.29150391 C109.90447534 246.35744716 110.12480629 249.58290971 110.11352539 254.41113281 C110.11344986 255.49195129 110.11337433 256.57276978 110.11329651 257.68634033 C110.10813522 258.84687927 110.10297394 260.00741821 110.09765625 261.203125 C110.09553383 262.99251495 110.09553383 262.99251495 110.09336853 264.8180542 C110.08777038 268.62872829 110.07521819 272.43934366 110.0625 276.25 C110.05748476 278.83333248 110.0529219 281.41666589 110.04882812 284 C110.0386524 290.33337417 110.01907644 296.66662134 110 303 C126.5 303 143 303 160 303 C160 251.85 160 200.7 160 148 C139.21 148 118.42 148 97 148 C91 143 91 143 90 140 C90 135.05 90 130.1 90 125 C58.32 125 26.64 125 -6 125 C-5.84171721 145.55343278 -5.84171721 145.55343278 -5.63964844 166.10644531 C-5.62796761 168.68033182 -5.61777436 171.25422569 -5.609375 173.828125 C-5.59892151 174.49527527 -5.58846802 175.16242554 -5.57769775 175.84979248 C-5.54836947 177.82057038 -5.54664362 179.79169934 -5.54589844 181.76269531 C-5.53701599 182.8730011 -5.52813354 183.98330688 -5.51898193 185.1272583 C-6.11043757 188.65955657 -7.21978249 189.8178963 -10 192 C-12 192.56640625 -12 192.56640625 -14 192.5625 C-14.99 192.59537109 -14.99 192.59537109 -16 192.62890625 C-19.15858461 191.63567945 -20.20321556 189.71879359 -22 187 C-22.50793457 183.81959534 -22.50793457 183.81959534 -22.51757812 180.19360352 C-22.5245874 179.52951477 -22.53159668 178.86542603 -22.53881836 178.18121338 C-22.55635279 175.99667937 -22.54479216 173.81345232 -22.53125 171.62890625 C-22.53394659 170.10342664 -22.5378304 168.57794872 -22.54284668 167.05247498 C-22.54873577 163.85895384 -22.54019953 160.66588102 -22.52148438 157.47241211 C-22.49871387 153.38896956 -22.51180854 149.3065798 -22.53577423 145.223176 C-22.5502651 142.0737472 -22.54561099 138.92456578 -22.53526306 135.77512932 C-22.53260382 134.27010917 -22.53583723 132.7650662 -22.54518127 131.26007271 C-22.55539987 129.15137862 -22.53977494 127.04436099 -22.51757812 124.93579102 C-22.51280457 123.13973167 -22.51280457 123.13973167 -22.50793457 121.30738831 C-21.89249861 117.30001057 -20.51805177 115.14473004 -18 112 C-16.515 111.01 -16.515 111.01 -15 110 C-14.54471781 108.04737743 -14.54471781 108.04737743 -14.61473083 105.76223755 C-14.60025909 104.42893402 -14.60025909 104.42893402 -14.585495 103.06869507 C-14.59007217 102.09099152 -14.59464935 101.11328796 -14.59936523 100.10595703 C-14.59238617 99.07821167 -14.5854071 98.05046631 -14.57821655 96.99157715 C-14.55815435 93.5802401 -14.55873969 90.16920345 -14.55859375 86.7578125 C-14.54683028 84.3936989 -14.53346861 82.02959275 -14.51856995 79.66549683 C-14.48229125 73.4297544 -14.46215602 67.19407798 -14.44702148 60.95825195 C-14.4222439 50.98304887 -14.38262468 41.00799182 -14.32512093 31.03292465 C-14.30875874 27.54300307 -14.30501069 24.05321821 -14.30210876 20.56326294 C-14.29233346 18.42645022 -14.28207034 16.28963966 -14.27124023 14.15283203 C-14.27379318 13.17917694 -14.27634613 12.20552185 -14.27897644 11.20236206 C-14.27214844 10.30785339 -14.26532043 9.41334473 -14.25828552 8.49172974 C-14.25665122 7.7163341 -14.25501692 6.94093845 -14.25333309 6.14204597 C-13.96280444 3.68549473 -13.30118983 2.09616643 -12 0 C-7.65546469 -2.73085077 -4.61796746 -1.82976069 0 0 Z M2 29 C2 43.52 2 58.04 2 73 C24.11 73 46.22 73 69 73 C69 58.48 69 43.96 69 29 C46.89 29 24.78 29 2 29 Z M2 89 C2 95.6 2 102.2 2 109 C24.11 109 46.22 109 69 109 C69 102.4 69 95.8 69 89 C46.89 89 24.78 89 2 89 Z M85 89 C85 95.6 85 102.2 85 109 C87.784375 109.12375 87.784375 109.12375 90.625 109.25 C96.02108238 109.70179463 99.01675166 110.33121863 103 114 C105 118 105 118 106 132 C121.18 132 136.36 132 152 132 C152 117.81 152 103.62 152 89 C129.89 89 107.78 89 85 89 Z M61 256 C61 271.51 61 287.02 61 303 C71.89 303 82.78 303 94 303 C94 287.49 94 271.98 94 256 C83.11 256 72.22 256 61 256 Z " fill="#000000" transform="translate(285,194)"/>
<path d="M0 0 C0.87315353 -0.00807175 1.74630707 -0.01614349 2.6459198 -0.02445984 C4.49610405 -0.03830239 6.34631387 -0.04902378 8.1965332 -0.05688477 C11.02149072 -0.07408795 13.84527496 -0.11797041 16.66992188 -0.16210938 C18.46743931 -0.17223722 20.2649667 -0.18075304 22.0625 -0.1875 C22.90537064 -0.20500809 23.74824127 -0.22251617 24.61665344 -0.24055481 C28.64499579 -0.22571195 30.72863395 -0.06828931 34.2409668 2.07739258 C37.9762149 6.13441564 37.42187347 10.6709935 37.46875 15.88671875 C37.47682175 16.73626129 37.48489349 17.58580383 37.49320984 18.46109009 C37.50703423 20.25821908 37.51776374 22.05537414 37.52563477 23.85253906 C37.54286156 26.59620971 37.58676275 29.33867933 37.63085938 32.08203125 C37.64098564 33.82941824 37.64950195 35.57681545 37.65625 37.32421875 C37.67375809 38.14207855 37.69126617 38.95993835 37.70930481 39.80258179 C37.69407775 43.81419249 37.53294908 45.76193978 35.32885742 49.23291016 C30.01119989 54.31484605 20.82410367 52.5446625 13.8371582 52.58837891 C11.896281 52.60493569 9.95546469 52.63222213 8.01489258 52.67041016 C5.2153361 52.72521465 2.41720837 52.74705789 -0.3828125 52.76171875 C-1.24755692 52.78438812 -2.11230133 52.8070575 -3.00325012 52.83041382 C-7.14730358 52.81590467 -9.25786506 52.56613786 -12.81689453 50.28564453 C-15.50305896 46.09350844 -15.47416531 42.8424957 -15.3984375 37.95703125 C-15.40084946 37.06592651 -15.40326141 36.17482178 -15.40574646 35.25671387 C-15.40476928 33.37731464 -15.39140636 31.49788618 -15.36645508 29.61865234 C-15.33213992 26.74737445 -15.34580336 23.87917487 -15.36523438 21.0078125 C-15.35833563 19.17837236 -15.34866298 17.34894014 -15.3359375 15.51953125 C-15.34089737 14.664198 -15.34585724 13.80886475 -15.35096741 12.9276123 C-15.27062847 8.84716054 -15.09039366 6.74510034 -12.85913086 3.22070312 C-8.94351437 -0.49407733 -5.13998265 0.04472466 0 0 Z M1.23046875 16.23828125 C1.23046875 22.83828125 1.23046875 29.43828125 1.23046875 36.23828125 C7.83046875 36.23828125 14.43046875 36.23828125 21.23046875 36.23828125 C21.23046875 29.63828125 21.23046875 23.03828125 21.23046875 16.23828125 C14.63046875 16.23828125 8.03046875 16.23828125 1.23046875 16.23828125 Z " fill="#000000" transform="translate(311.76953125,359.76171875)"/>
<path d="M0 0 C1.83020752 -0.01655415 3.66035054 -0.04383726 5.49023438 -0.08203125 C8.13681372 -0.13694449 10.78188194 -0.15869425 13.42895508 -0.17333984 C14.64800285 -0.2073439 14.64800285 -0.2073439 15.89167786 -0.24203491 C19.76378666 -0.22771541 22.70519059 0.07336414 25.95629883 2.2890625 C29.37832258 6.50538855 29.29448812 9.56384392 29.20239258 14.85009766 C29.20576126 15.76339844 29.20912994 16.67669922 29.21260071 17.61767578 C29.21230237 19.5441655 29.197101 21.4707032 29.16796875 23.39697266 C29.12829429 26.34115863 29.14726455 29.28083765 29.1730957 32.22509766 C29.16553612 34.10011508 29.15458217 35.97512253 29.13989258 37.85009766 C29.15036873 39.1659082 29.15036873 39.1659082 29.16105652 40.50830078 C29.06545071 44.65887554 28.76382812 46.8474266 26.47705078 50.40454102 C22.29231051 53.08591073 19.03641616 53.05460039 14.15942383 52.97900391 C13.26831909 52.98141586 12.37721436 52.98382782 11.45910645 52.98631287 C9.57970722 52.98533568 7.70027876 52.97197276 5.82104492 52.94702148 C2.94976703 52.91270633 0.08156745 52.92636977 -2.78979492 52.94580078 C-4.61923506 52.93890203 -6.44866728 52.92922938 -8.27807617 52.91650391 C-9.56107605 52.92394371 -9.56107605 52.92394371 -10.86999512 52.93153381 C-14.90756303 52.8520392 -17.06293512 52.65407693 -20.5769043 50.50219727 C-24.25722323 46.50687566 -23.74997575 42.09404012 -23.79760742 36.95556641 C-23.80567917 36.13059158 -23.81375092 35.30561676 -23.82206726 34.4556427 C-23.83589191 32.70978894 -23.8466213 30.96390833 -23.85449219 29.21801758 C-23.87169589 26.55774299 -23.9155939 23.89871458 -23.9597168 21.23876953 C-23.96984521 19.54021093 -23.97836085 17.8416418 -23.98510742 16.14306641 C-24.00261551 15.35224167 -24.0201236 14.56141693 -24.03816223 13.74662781 C-24.01776513 8.51306807 -23.09450234 5.46122276 -19.55932617 1.35009766 C-13.46723327 -0.68059998 -6.39483621 0.04239164 0 0 Z M-7.55932617 16.35009766 C-7.55932617 22.95009766 -7.55932617 29.55009766 -7.55932617 36.35009766 C-0.95932617 36.35009766 5.64067383 36.35009766 12.44067383 36.35009766 C12.44067383 29.75009766 12.44067383 23.15009766 12.44067383 16.35009766 C5.84067383 16.35009766 -0.75932617 16.35009766 -7.55932617 16.35009766 Z " fill="#000000" transform="translate(398.559326171875,359.64990234375)"/>
</svg>
