<svg width="70" height="91" viewBox="0 0 70 91" fill="none" xmlns="http://www.w3.org/2000/svg">
<path d="M48.5454 10.6367L29.4204 63.0003H22.9431L3.81812 10.6367H10.3976L25.9431 54.9889H26.4204L41.9658 10.6367H48.5454Z" fill="white"/>
<path d="M29.2385 82.6363C28.034 82.6363 26.909 82.5233 25.8635 82.2953C24.8181 82.0683 23.9885 81.8183 23.3749 81.5453L25.0113 76.1933C27.0794 76.8303 28.9204 77.0573 30.534 76.8753C32.1476 76.7163 33.5794 75.9893 34.8294 74.6933C36.0794 73.4203 37.1931 71.4663 38.1704 68.8303L40.0794 63.5117L20.8181 10.6367H27.3976L42.9431 54.9889H43.4204L58.9658 10.6367H65.5454L43.3863 71.2843C42.4544 73.8073 41.3067 75.9093 39.9431 77.5913C38.5794 79.2953 36.9999 80.5573 35.2044 81.3753C33.4317 82.2163 31.4431 82.6363 29.2385 82.6363Z" fill="white"/>
</svg>
